<svg viewBox="0 0 196 144" xml:space="preserve" xmlns="http://www.w3.org/2000/svg"><path d="M157.024 0H38.976C17.484 0 0 17.54 0 39.098v65.805C0 126.46 17.484 144 38.976 144h118.048C178.516 144 196 126.46 196 104.903V39.097C196 17.539 178.516 0 157.024 0zM188 104.903C188 122.049 174.103 136 157.024 136H38.976C21.896 136 8 122.049 8 104.903V39.097C8 21.95 21.896 8 38.976 8h118.048C174.103 8 188 21.951 188 39.098v65.805z" fill="#adb5bd" class="fill-000000"></path><path d="m133.441 70.553-55.42-32.461A4 4 0 0 0 72 41.543v64.914a4.002 4.002 0 0 0 4 4c.7 0 1.396-.183 2.022-.548l55.42-32.454a4 4 0 0 0 0-6.902zM80 99.478V48.522l43.504 25.482L80 99.478z" fill="#adb5bd" class="fill-000000"></path></svg>